<?xml version="1.0" standalone="no"?><!DOCTYPE svg PUBLIC "-//W3C//DTD SVG 1.1//EN" "http://www.w3.org/Graphics/SVG/1.1/DTD/svg11.dtd"><svg t="1743554573505" class="icon" viewBox="0 0 1024 1024" version="1.1" xmlns="http://www.w3.org/2000/svg" p-id="4346" width="256" height="256" xmlns:xlink="http://www.w3.org/1999/xlink"><path d="M220.748824 588.432738c2.859831 0 5.659454-0.391345 8.398871-1.113829l130.468486-34.950141 20.530573 44.28222-105.723424 58.882408a34.67921 34.67921 0 0 0-14.720602 43.800564l61.170273 145.941675a32.903104 32.903104 0 0 0 43.920978 17.911571c16.918156-7.52587 24.714958-27.695202 17.399812-45.125118l-49.158984-117.10254 79.924741-44.523048 61.019756 94.103481c3.823142 5.900282 9.362183 10.445908 15.74412 13.034807l180.891816 71.495767c3.973659 1.565381 8.037629 2.287865 11.951082 2.287865a33.414864 33.414864 0 0 0 31.187206-21.975541 34.67921 34.67921 0 0 0-19.206021-44.432738l-170.98777-67.552211-70.682973-108.9746-32.150518-69.508937 73.392286-58.340545 108.342428 37.087488a33.204139 33.204139 0 0 0 42.235183-21.734713c5.779868-18.001881-3.642521-37.418627-21.10254-43.409219l-125.23048-42.927564a32.541863 32.541863 0 0 0-31.006585 5.44873l-75.890875 60.417686-21.554092-46.570085a131.070555 131.070555 0 0 0 42.837253-96.873001c0-71.796802-56.835372-130.167451-126.61524-130.16745-69.809972 0-126.61524 58.370649-126.61524 130.16745 0 71.826905 56.805268 130.197554 126.61524 130.197554 8.21825 0 16.285983-0.933208 24.142992-2.498589l20.109125 43.49953-103.706491 27.755409-93.32079-63.126999c-15.473189-10.476011-36.124177-6.0508-46.26905 9.783631s-5.840075 37.117592 9.542803 47.533397l105.753528 71.555973c5.53904 3.793039 11.920978 5.719661 18.363123 5.719662z m65.444967-208.85795c-33.023518 0-59.84572-27.604892-59.84572-61.501411 0-33.926623 26.882408-61.531515 59.84572-61.531514s59.785513 27.604892 59.785513 61.531514c0 33.896519-26.792098 61.501411-59.785513 61.501411z m274.062089-108.703669h178.062088c18.42333 0 33.38476-15.412982 33.38476-34.408278 0-18.935089-14.96143-34.317968-33.38476-34.317968h-178.062088c-18.393227 0-33.38476 15.382879-33.384761 34.317968-0.030103 19.0254 14.96143 34.408278 33.384761 34.408278z m77.907808 131.582315c0 18.965193 14.931326 34.348071 33.38476 34.348071h178.062088c18.42333 0 33.38476-15.352775 33.38476-34.348071 0-18.965193-14.96143-34.348071-33.38476-34.348072H671.608655c-18.483537 0.030103-33.444967 15.412982-33.444967 34.348072z m89.046096 154.521166c0 18.965193 14.931326 34.317968 33.354656 34.317968h178.092192c18.42333 0 33.38476-15.352775 33.38476-34.317968s-14.96143-34.378175-33.38476-34.378175h-178.092192c-18.393227 0.030103-33.354657 15.412982-33.354656 34.378175z" p-id="4347" fill="#8a8a8a"></path></svg>